<?xml version="1.0" encoding="utf-8"?><svg xmlns="http://www.w3.org/2000/svg" xmlns:xlink="http://www.w3.org/1999/xlink"><symbol viewBox="0 0 320 512" id="baht" xmlns="http://www.w3.org/2000/svg"><!--!Font Awesome Free 6.7.2 by @fontawesome - https://fontawesome.com License - https://fontawesome.com/license/free Copyright 2025 Fonticons, Inc.--><path d="M144 0c-17.7 0-32 14.3-32 32v32H37.6C16.8 64 0 80.8 0 101.6v304.7c0 23 18.7 41.7 41.7 41.7H112v32c0 17.7 14.3 32 32 32s32-14.3 32-32v-32h32c61.9 0 112-50.1 112-112 0-40.1-21.1-75.3-52.7-95.1 13-18.3 20.7-40.7 20.7-64.9 0-61.9-50.1-112-112-112V32c0-17.7-14.3-32-32-32zm-32 128v96H64v-96h48zm64 96v-96c26.5 0 48 21.5 48 48s-21.5 48-48 48zm-64 64v96H64v-96h48zm64 96v-96h32c26.5 0 48 21.5 48 48s-21.5 48-48 48h-32z" fill="currentColor"/></symbol><symbol viewBox="0 0 192 512" id="info" xmlns="http://www.w3.org/2000/svg"><!--!Font Awesome Free 6.7.2 by @fontawesome - https://fontawesome.com License - https://fontawesome.com/license/free Copyright 2025 Fonticons, Inc.--><path d="M48 80a48 48 0 1 1 96 0 48 48 0 1 1-96 0zM0 224c0-17.7 14.3-32 32-32h64c17.7 0 32 14.3 32 32v224h32c17.7 0 32 14.3 32 32s-14.3 32-32 32H32c-17.7 0-32-14.3-32-32s14.3-32 32-32h32V256H32c-17.7 0-32-14.3-32-32z"/></symbol><symbol viewBox="0 0 512 512" id="question" xmlns="http://www.w3.org/2000/svg"><!--!Font Awesome Free 6.7.2 by @fontawesome - https://fontawesome.com License - https://fontawesome.com/license/free Copyright 2025 Fonticons, Inc.--><path d="M464 256a208 208 0 1 0-416 0 208 208 0 1 0 416 0zM0 256a256 256 0 1 1 512 0 256 256 0 1 1-512 0zm169.8-90.7c7.9-22.3 29.1-37.3 52.8-37.3h58.3c34.9 0 63.1 28.3 63.1 63.1 0 22.6-12.1 43.5-31.7 54.8L280 264.4c-.2 13-10.9 23.6-24 23.6-13.3 0-24-10.7-24-24v-13.5c0-8.6 4.6-16.5 12.1-20.8l44.3-25.4c4.7-2.7 7.6-7.7 7.6-13.1 0-8.4-6.8-15.1-15.1-15.1h-58.3c-3.4 0-6.4 2.1-7.5 5.3l-.4 1.2c-4.4 12.5-18.2 19-30.6 14.6s-19-18.2-14.6-30.6l.4-1.2zM224 352a32 32 0 1 1 64 0 32 32 0 1 1-64 0z" fill="currentColor"/></symbol></svg>